<svg width="34" height="37" viewBox="0 0 34 37" fill="none" xmlns="http://www.w3.org/2000/svg">
<path d="M32.335 0.425332C31.6858 0.703182 31.0206 0.95482 30.366 1.2117C30.2702 1.2484 30.1584 1.25888 30.052 1.27985C30.0413 1.25364 30.0254 1.22743 30.0147 1.20646C30.4671 0.87094 30.9248 0.540666 31.3771 0.205149C31.3611 0.178937 31.3505 0.152724 31.3345 0.131754C30.6693 0.283786 29.9881 0.383392 29.3495 0.656C29.3389 0.624545 29.3229 0.59309 29.3123 0.566878C29.4879 0.414847 29.6582 0.262816 29.8338 0.116027C29.8285 0.110785 29.8232 0.1003 29.8178 0.0950573C29.4134 0.304755 29.0089 0.519696 28.5991 0.729394C28.5885 0.713667 28.5832 0.697939 28.5725 0.682212C28.9504 0.456787 29.3282 0.231361 29.7061 0.00593557C29.1899 -0.0307616 28.7215 0.105542 28.2586 0.33621C26.7525 1.08588 25.3156 1.94564 24.0011 2.99938C22.6494 4.08456 21.452 5.32178 20.3238 6.62715C17.8173 9.52623 15.5395 12.5826 13.8898 16.0531C13.8472 16.1474 13.7887 16.1999 13.7089 16.2261C13.2618 17.479 12.9691 18.8106 12.2401 19.9115C12.0485 20.4358 11.8462 20.96 11.6547 21.4895C10.7819 23.943 10.0209 26.4331 9.36098 28.9548C9.35566 28.9705 9.34501 28.9862 9.31841 29.0491C9.22794 28.9181 9.14811 28.8185 9.08425 28.7031C8.48289 27.6756 7.89217 26.6376 7.29081 25.6101C6.39144 24.0845 5.49206 22.559 4.58736 21.0387C4.19355 20.3781 3.52833 20.0321 2.88972 20.1684C2.60766 20.2261 2.32029 20.3152 2.07017 20.4515C1.89987 20.5459 1.74022 20.7346 1.67103 20.9128C1.58056 21.1592 1.45816 21.2169 1.22401 21.1802C1.11225 21.1592 0.995169 21.175 0.830195 21.175C0.910021 21.3951 0.984526 21.5944 1.04307 21.7936C1.1016 21.9875 1.13886 22.1868 1.18143 22.3807C1.1495 22.3965 1.12289 22.4122 1.09096 22.4279C0.766334 22.0871 0.436385 21.7516 0.111757 21.4109C0.0745048 21.4318 0.0372523 21.4528 0 21.4685C0.133044 21.867 0.223514 22.2916 0.409776 22.6638C1.00581 23.8434 1.62846 25.0124 2.26707 26.171C3.65073 28.6874 5.21533 31.1094 6.41272 33.7254C6.75864 34.4751 6.99812 35.2772 7.25356 36.0635C7.35467 36.3833 7.51965 36.593 7.82299 36.7293C9.39291 37.4318 11.5642 36.6874 12.2826 35.1461C12.5168 34.6428 12.5913 34.0766 12.7509 33.5419C13.6024 30.6953 14.4007 27.8329 15.3267 25.0124C15.8376 23.4607 16.4762 21.9456 17.0829 20.42C17.2904 19.403 17.7428 18.4699 18.1259 17.5C18.3388 16.9705 18.6741 15.9797 19.2861 15.6599C19.8395 14.6271 20.393 13.5944 20.9571 12.5669C22.0321 10.6114 23.2455 8.75035 24.7249 7.06228C26.1458 5.44236 27.7211 3.9902 29.4985 2.75822C30.6321 1.97186 31.8348 1.30606 33.0801 0.703182C33.2397 0.629787 33.3781 0.519696 33.5803 0.388635C33.1014 0.173694 32.7235 0.257573 32.335 0.425332Z" fill="#ED2C4F"/>
</svg>
