<svg width="270" height="124" viewBox="0 0 270 124" fill="none" xmlns="http://www.w3.org/2000/svg">
<path d="M16.994 21.724V28.684H33.93V39.008H16.994V52H3.306V11.4H36.308V21.724H16.994ZM61.635 52.928C57.2656 52.928 53.341 52.0193 49.861 50.202C46.381 48.3847 43.655 45.8713 41.683 42.662C39.711 39.414 38.725 35.76 38.725 31.7C38.725 27.64 39.711 24.0053 41.683 20.796C43.655 17.548 46.381 15.0153 49.861 13.198C53.341 11.3807 57.2656 10.472 61.635 10.472C66.0043 10.472 69.929 11.3807 73.409 13.198C76.889 15.0153 79.615 17.548 81.587 20.796C83.559 24.0053 84.545 27.64 84.545 31.7C84.545 35.76 83.559 39.414 81.587 42.662C79.615 45.8713 76.889 48.3847 73.409 50.202C69.929 52.0193 66.0043 52.928 61.635 52.928ZM61.635 41.85C63.3363 41.85 64.8636 41.444 66.217 40.632C67.609 39.7813 68.711 38.602 69.523 37.094C70.335 35.5473 70.741 33.7493 70.741 31.7C70.741 29.6507 70.335 27.872 69.523 26.364C68.711 24.8173 67.609 23.638 66.217 22.826C64.8636 21.9753 63.3363 21.55 61.635 21.55C59.9336 21.55 58.387 21.9753 56.995 22.826C55.6416 23.638 54.559 24.8173 53.747 26.364C52.935 27.872 52.529 29.6507 52.529 31.7C52.529 33.7493 52.935 35.5473 53.747 37.094C54.559 38.602 55.6416 39.7813 56.995 40.632C58.387 41.444 59.9336 41.85 61.635 41.85ZM106.913 41.792H103.201V52H89.513V11.4H109.059C112.81 11.4 116.077 12.0187 118.861 13.256C121.645 14.4933 123.791 16.272 125.299 18.592C126.807 20.912 127.561 23.6187 127.561 26.712C127.561 29.612 126.904 32.1447 125.589 34.31C124.274 36.4753 122.38 38.196 119.905 39.472L128.431 52H113.815L106.913 41.792ZM113.757 26.712C113.757 25.204 113.293 24.044 112.365 23.232C111.437 22.3813 110.045 21.956 108.189 21.956H103.201V31.468H108.189C110.045 31.468 111.437 31.062 112.365 30.25C113.293 29.3993 113.757 28.22 113.757 26.712ZM140.979 22.014H129.089V11.4H166.557V22.014H154.667V52H140.979V22.014ZM188.976 52.928C182.751 52.928 177.898 51.246 174.418 47.882C170.938 44.518 169.198 39.8007 169.198 33.73V11.4H182.886V33.324C182.886 36.3013 183.408 38.4667 184.452 39.82C185.535 41.1733 187.082 41.85 189.092 41.85C191.103 41.85 192.63 41.1733 193.674 39.82C194.757 38.4667 195.298 36.3013 195.298 33.324V11.4H208.754V33.73C208.754 39.8007 207.014 44.518 203.534 47.882C200.054 51.246 195.202 52.928 188.976 52.928ZM16.994 83.724V90.684H33.93V101.008H16.994V114H3.306V73.4H36.308V83.724H16.994ZM40.6322 73.4H54.3202V103.386H72.6482V114H40.6322V73.4ZM110.185 103.676V114H76.429V73.4H109.431V83.724H89.885V88.48H107.053V98.34H89.885V103.676H110.185ZM140.865 114L133.847 103.154L127.003 114H111.401L126.075 93.526L111.923 73.4H127.293L134.195 83.608L140.923 73.4H155.655L141.561 93.004L156.525 114H140.865Z" fill="black"/>
<circle cx="61.5" cy="31.5" r="6.5" fill="#FF1C1C"/>
</svg>
