<svg width="153" height="26" viewBox="0 0 153 26" fill="none" xmlns="http://www.w3.org/2000/svg">
<path d="M12.5 1L15.3064 9.63729H24.3882L17.0409 14.9754L19.8473 23.6127L12.5 18.2746L5.15268 23.6127L7.95911 14.9754L0.611794 9.63729H9.69357L12.5 1Z" fill="#FCB325"/>
<path d="M44.5 1L47.3064 9.63729H56.3882L49.0409 14.9754L51.8473 23.6127L44.5 18.2746L37.1527 23.6127L39.9591 14.9754L32.6118 9.63729H41.6936L44.5 1Z" fill="#FCB325"/>
<path d="M76.5 0L79.3064 8.63729H88.3882L81.0409 13.9754L83.8473 22.6127L76.5 17.2746L69.1527 22.6127L71.9591 13.9754L64.6118 8.63729H73.6936L76.5 0Z" fill="#FCB325"/>
<path d="M108.5 1L111.306 9.63729H120.388L113.041 14.9754L115.847 23.6127L108.5 18.2746L101.153 23.6127L103.959 14.9754L96.6118 9.63729H105.694L108.5 1Z" fill="#FCB325"/>
<path d="M140.5 4.23607L142.355 9.9463L142.58 10.6373H143.306H149.311L144.453 14.1664L143.865 14.5935L144.09 15.2844L145.945 20.9947L141.088 17.4656L140.5 17.0385L139.912 17.4656L135.055 20.9947L136.91 15.2844L137.135 14.5935L136.547 14.1664L131.689 10.6373H137.694H138.42L138.645 9.9463L140.5 4.23607Z" stroke="#FEDA92" stroke-width="2"/>
</svg>
