<svg width="77" height="413" viewBox="0 0 77 413" fill="none" xmlns="http://www.w3.org/2000/svg">
<circle cx="38.5" cy="38.5" r="36" stroke="#E0433E" stroke-width="5"/>
<circle cx="38.5" cy="150.5" r="36" stroke="#E0433E" stroke-width="5"/>
<circle cx="38.5" cy="262.5" r="36" stroke="#E0433E" stroke-width="5"/>
<circle cx="38.5" cy="374.5" r="36" stroke="#E0433E" stroke-width="5"/>
<path d="M39 76V112" stroke="#E0433E" stroke-width="5"/>
<path d="M39 188V224" stroke="#E0433E" stroke-width="5"/>
<path d="M38 300V336" stroke="#E0433E" stroke-width="5"/>
<path d="M31.005 51.49C28.905 51.49 27.0383 50.9883 25.405 49.985C23.7717 48.9817 22.4883 47.5233 21.555 45.61C20.645 43.6733 20.19 41.3867 20.19 38.75C20.19 36.1133 20.645 33.8383 21.555 31.925C22.4883 29.9883 23.7717 28.5183 25.405 27.515C27.0383 26.5117 28.905 26.01 31.005 26.01C33.0817 26.01 34.9367 26.5117 36.57 27.515C38.2033 28.5183 39.475 29.9883 40.385 31.925C41.3183 33.8383 41.785 36.1133 41.785 38.75C41.785 41.3867 41.3183 43.6733 40.385 45.61C39.475 47.5233 38.2033 48.9817 36.57 49.985C34.9367 50.9883 33.0817 51.49 31.005 51.49ZM31.005 45.82C32.1717 45.82 33.0933 45.26 33.77 44.14C34.47 42.9967 34.82 41.2 34.82 38.75C34.82 36.3 34.47 34.515 33.77 33.395C33.0933 32.2517 32.1717 31.68 31.005 31.68C29.815 31.68 28.87 32.2517 28.17 33.395C27.4933 34.515 27.155 36.3 27.155 38.75C27.155 41.2 27.4933 42.9967 28.17 44.14C28.87 45.26 29.815 45.82 31.005 45.82ZM54.3765 26.5V51H47.4465V31.855H42.8965V26.5H54.3765Z" fill="#E0433E"/>
<path d="M28.005 162.49C25.905 162.49 24.0383 161.988 22.405 160.985C20.7717 159.982 19.4883 158.523 18.555 156.61C17.645 154.673 17.19 152.387 17.19 149.75C17.19 147.113 17.645 144.838 18.555 142.925C19.4883 140.988 20.7717 139.518 22.405 138.515C24.0383 137.512 25.905 137.01 28.005 137.01C30.0817 137.01 31.9367 137.512 33.57 138.515C35.2033 139.518 36.475 140.988 37.385 142.925C38.3183 144.838 38.785 147.113 38.785 149.75C38.785 152.387 38.3183 154.673 37.385 156.61C36.475 158.523 35.2033 159.982 33.57 160.985C31.9367 161.988 30.0817 162.49 28.005 162.49ZM28.005 156.82C29.1717 156.82 30.0933 156.26 30.77 155.14C31.47 153.997 31.82 152.2 31.82 149.75C31.82 147.3 31.47 145.515 30.77 144.395C30.0933 143.252 29.1717 142.68 28.005 142.68C26.815 142.68 25.87 143.252 25.17 144.395C24.4933 145.515 24.155 147.3 24.155 149.75C24.155 152.2 24.4933 153.997 25.17 155.14C25.87 156.26 26.815 156.82 28.005 156.82ZM59.8115 156.505V162H40.7365V157.66L49.9065 149.085C50.7932 148.245 51.3882 147.533 51.6915 146.95C51.9949 146.343 52.1465 145.737 52.1465 145.13C52.1465 144.337 51.8782 143.718 51.3415 143.275C50.8049 142.832 50.0232 142.61 48.9965 142.61C48.0865 142.61 47.2465 142.82 46.4765 143.24C45.7299 143.637 45.1115 144.22 44.6215 144.99L39.4765 142.12C40.4332 140.533 41.7749 139.285 43.5015 138.375C45.2282 137.465 47.2699 137.01 49.6265 137.01C51.4932 137.01 53.1382 137.313 54.5615 137.92C56.0082 138.527 57.1282 139.402 57.9215 140.545C58.7382 141.665 59.1465 142.972 59.1465 144.465C59.1465 145.795 58.8549 147.055 58.2715 148.245C57.7115 149.412 56.6149 150.742 54.9815 152.235L50.3615 156.505H59.8115Z" fill="#E0433E"/>
<path d="M28.005 275.49C25.905 275.49 24.0383 274.988 22.405 273.985C20.7717 272.982 19.4883 271.523 18.555 269.61C17.645 267.673 17.19 265.387 17.19 262.75C17.19 260.113 17.645 257.838 18.555 255.925C19.4883 253.988 20.7717 252.518 22.405 251.515C24.0383 250.512 25.905 250.01 28.005 250.01C30.0817 250.01 31.9367 250.512 33.57 251.515C35.2033 252.518 36.475 253.988 37.385 255.925C38.3183 257.838 38.785 260.113 38.785 262.75C38.785 265.387 38.3183 267.673 37.385 269.61C36.475 271.523 35.2033 272.982 33.57 273.985C31.9367 274.988 30.0817 275.49 28.005 275.49ZM28.005 269.82C29.1717 269.82 30.0933 269.26 30.77 268.14C31.47 266.997 31.82 265.2 31.82 262.75C31.82 260.3 31.47 258.515 30.77 257.395C30.0933 256.252 29.1717 255.68 28.005 255.68C26.815 255.68 25.87 256.252 25.17 257.395C24.4933 258.515 24.155 260.3 24.155 262.75C24.155 265.2 24.4933 266.997 25.17 268.14C25.87 269.26 26.815 269.82 28.005 269.82ZM53.3732 260.3C55.4032 260.72 56.9548 261.56 58.0282 262.82C59.1248 264.057 59.6732 265.562 59.6732 267.335C59.6732 268.782 59.2765 270.123 58.4832 271.36C57.7132 272.597 56.5232 273.6 54.9132 274.37C53.3265 275.117 51.3548 275.49 48.9982 275.49C47.2715 275.49 45.5565 275.28 43.8532 274.86C42.1732 274.44 40.7148 273.845 39.4782 273.075L41.9982 267.86C42.9548 268.513 44.0282 269.015 45.2182 269.365C46.4315 269.715 47.6215 269.89 48.7882 269.89C49.9782 269.89 50.9232 269.668 51.6232 269.225C52.3232 268.782 52.6732 268.152 52.6732 267.335C52.6732 265.748 51.4248 264.955 48.9282 264.955H46.0232V260.58L50.3982 255.855H40.7382V250.5H58.4482V254.84L53.3732 260.3Z" fill="#E0433E"/>
<path d="M26.005 388.49C23.905 388.49 22.0383 387.988 20.405 386.985C18.7717 385.982 17.4883 384.523 16.555 382.61C15.645 380.673 15.19 378.387 15.19 375.75C15.19 373.113 15.645 370.838 16.555 368.925C17.4883 366.988 18.7717 365.518 20.405 364.515C22.0383 363.512 23.905 363.01 26.005 363.01C28.0817 363.01 29.9367 363.512 31.57 364.515C33.2033 365.518 34.475 366.988 35.385 368.925C36.3183 370.838 36.785 373.113 36.785 375.75C36.785 378.387 36.3183 380.673 35.385 382.61C34.475 384.523 33.2033 385.982 31.57 386.985C29.9367 387.988 28.0817 388.49 26.005 388.49ZM26.005 382.82C27.1717 382.82 28.0933 382.26 28.77 381.14C29.47 379.997 29.82 378.2 29.82 375.75C29.82 373.3 29.47 371.515 28.77 370.395C28.0933 369.252 27.1717 368.68 26.005 368.68C24.815 368.68 23.87 369.252 23.17 370.395C22.4933 371.515 22.155 373.3 22.155 375.75C22.155 378.2 22.4933 379.997 23.17 381.14C23.87 382.26 24.815 382.82 26.005 382.82ZM62.25 383.31H58.61V388H51.855V383.31H38.905V378.795L49.895 363.5H57.07L47.095 377.815H52.065V373.65H58.61V377.815H62.25V383.31Z" fill="#E0433E"/>
</svg>
