<svg width="41" height="32" viewBox="0 0 41 32" fill="none" xmlns="http://www.w3.org/2000/svg">
<path d="M21.3164 23.6836C21.4978 28.3842 25.4889 32 30.0243 32C34.6504 32 38.4602 27.9322 38.4602 23.322C38.4602 19.3446 35.7389 16.0904 31.9292 15.096C36.0111 10.3051 38.1881 8.76836 41 6.50847L36.646 0C26.9403 6.32768 21.3164 15.096 21.3164 23.6836ZM0 23.6836C0 28.3842 4.17257 32 8.70796 32C13.2434 32 17.0531 27.9322 17.0531 23.322C17.0531 19.3446 14.4226 16.0904 10.6128 15.096C14.5133 10.6667 16.3274 8.85876 19.5929 6.50847L15.3296 0C5.53319 6.32768 0 15.096 0 23.6836Z" fill="#FFBF73"/>
</svg>
