<svg width="42" height="32" viewBox="0 0 42 32" fill="none" xmlns="http://www.w3.org/2000/svg">
<path d="M20.1637 8.31638C19.9779 3.61582 15.8894 0 11.2434 0C6.50443 0 2.60177 4.0678 2.60177 8.67797C2.60177 12.6554 5.38938 15.9096 9.29204 16.904C5.11062 21.6949 2.88053 23.2316 0 25.4915L4.46018 32C14.4027 25.6723 20.1637 16.904 20.1637 8.31638ZM42 8.31638C42 3.61582 37.7257 0 33.0796 0C28.4336 0 24.531 4.0678 24.531 8.67797C24.531 12.6554 27.2257 15.9096 31.1283 16.904C27.1327 21.3333 25.2743 23.1412 21.9292 25.4915L26.2965 32C36.3319 25.6723 42 16.904 42 8.31638Z" fill="#FFBF73"/>
</svg>
